<mxfile host="app.diagrams.net" modified="2022-08-21T08:12:23.574Z" agent="5.0 (Windows NT 10.0; Win64; x64) AppleWebKit/537.36 (KHTML, like Gecko) Chrome/97.0.4692.71 Safari/537.36" etag="BSjHU906TD72G-6oYp_f" version="20.2.5" type="github">
  <diagram id="5aRhrvcRzWOUmRe86cMd" name="第 1 页">
    <mxGraphModel dx="1542" dy="815" grid="1" gridSize="10" guides="1" tooltips="1" connect="1" arrows="1" fold="1" page="1" pageScale="1" pageWidth="4000" pageHeight="8000" math="0" shadow="0">
      <root>
        <mxCell id="0" />
        <mxCell id="1" parent="0" />
        <mxCell id="IM6zeczxpk0CNqdoy-Uw-5" value="" style="edgeStyle=orthogonalEdgeStyle;rounded=0;orthogonalLoop=1;jettySize=auto;html=1;startArrow=classic;startFill=1;" edge="1" parent="1" source="IM6zeczxpk0CNqdoy-Uw-1" target="IM6zeczxpk0CNqdoy-Uw-4">
          <mxGeometry relative="1" as="geometry" />
        </mxCell>
        <mxCell id="IM6zeczxpk0CNqdoy-Uw-38" value="" style="edgeStyle=orthogonalEdgeStyle;rounded=0;orthogonalLoop=1;jettySize=auto;html=1;startArrow=none;startFill=0;" edge="1" parent="1" source="IM6zeczxpk0CNqdoy-Uw-1" target="IM6zeczxpk0CNqdoy-Uw-37">
          <mxGeometry relative="1" as="geometry" />
        </mxCell>
        <mxCell id="IM6zeczxpk0CNqdoy-Uw-1" value="ReactDOM.createRoot" style="rounded=1;whiteSpace=wrap;html=1;" vertex="1" parent="1">
          <mxGeometry x="1510" y="450" width="160" height="60" as="geometry" />
        </mxCell>
        <mxCell id="IM6zeczxpk0CNqdoy-Uw-7" value="" style="edgeStyle=orthogonalEdgeStyle;rounded=0;orthogonalLoop=1;jettySize=auto;html=1;startArrow=classic;startFill=1;" edge="1" parent="1" source="IM6zeczxpk0CNqdoy-Uw-4" target="IM6zeczxpk0CNqdoy-Uw-6">
          <mxGeometry relative="1" as="geometry" />
        </mxCell>
        <mxCell id="IM6zeczxpk0CNqdoy-Uw-19" value="" style="edgeStyle=orthogonalEdgeStyle;rounded=0;orthogonalLoop=1;jettySize=auto;html=1;" edge="1" parent="1" source="IM6zeczxpk0CNqdoy-Uw-4" target="IM6zeczxpk0CNqdoy-Uw-18">
          <mxGeometry relative="1" as="geometry" />
        </mxCell>
        <mxCell id="IM6zeczxpk0CNqdoy-Uw-4" value="createContainer" style="rounded=1;whiteSpace=wrap;html=1;" vertex="1" parent="1">
          <mxGeometry x="1030" y="580" width="160" height="60" as="geometry" />
        </mxCell>
        <mxCell id="IM6zeczxpk0CNqdoy-Uw-9" value="" style="edgeStyle=orthogonalEdgeStyle;rounded=0;orthogonalLoop=1;jettySize=auto;html=1;" edge="1" parent="1" source="IM6zeczxpk0CNqdoy-Uw-6" target="IM6zeczxpk0CNqdoy-Uw-8">
          <mxGeometry relative="1" as="geometry" />
        </mxCell>
        <mxCell id="IM6zeczxpk0CNqdoy-Uw-6" value="createFiberRoot" style="rounded=1;whiteSpace=wrap;html=1;" vertex="1" parent="1">
          <mxGeometry x="1320" y="580" width="160" height="60" as="geometry" />
        </mxCell>
        <mxCell id="IM6zeczxpk0CNqdoy-Uw-11" value="" style="edgeStyle=orthogonalEdgeStyle;rounded=0;orthogonalLoop=1;jettySize=auto;html=1;" edge="1" parent="1" source="IM6zeczxpk0CNqdoy-Uw-8" target="IM6zeczxpk0CNqdoy-Uw-10">
          <mxGeometry relative="1" as="geometry" />
        </mxCell>
        <mxCell id="IM6zeczxpk0CNqdoy-Uw-8" value="new FiberRootNode" style="rounded=1;whiteSpace=wrap;html=1;" vertex="1" parent="1">
          <mxGeometry x="1320" y="720" width="160" height="60" as="geometry" />
        </mxCell>
        <mxCell id="IM6zeczxpk0CNqdoy-Uw-13" value="" style="edgeStyle=orthogonalEdgeStyle;rounded=0;orthogonalLoop=1;jettySize=auto;html=1;" edge="1" parent="1" source="IM6zeczxpk0CNqdoy-Uw-10" target="IM6zeczxpk0CNqdoy-Uw-12">
          <mxGeometry relative="1" as="geometry" />
        </mxCell>
        <mxCell id="IM6zeczxpk0CNqdoy-Uw-10" value="createHostRootFiber" style="rounded=1;whiteSpace=wrap;html=1;" vertex="1" parent="1">
          <mxGeometry x="1320" y="860" width="160" height="60" as="geometry" />
        </mxCell>
        <mxCell id="IM6zeczxpk0CNqdoy-Uw-15" value="" style="edgeStyle=orthogonalEdgeStyle;rounded=0;orthogonalLoop=1;jettySize=auto;html=1;" edge="1" parent="1" source="IM6zeczxpk0CNqdoy-Uw-12" target="IM6zeczxpk0CNqdoy-Uw-14">
          <mxGeometry relative="1" as="geometry" />
        </mxCell>
        <mxCell id="IM6zeczxpk0CNqdoy-Uw-12" value="createFiber" style="rounded=1;whiteSpace=wrap;html=1;" vertex="1" parent="1">
          <mxGeometry x="1320" y="1000" width="160" height="60" as="geometry" />
        </mxCell>
        <mxCell id="IM6zeczxpk0CNqdoy-Uw-17" value="" style="edgeStyle=orthogonalEdgeStyle;rounded=0;orthogonalLoop=1;jettySize=auto;html=1;" edge="1" parent="1" source="IM6zeczxpk0CNqdoy-Uw-14" target="IM6zeczxpk0CNqdoy-Uw-16">
          <mxGeometry relative="1" as="geometry" />
        </mxCell>
        <mxCell id="IM6zeczxpk0CNqdoy-Uw-14" value="new FiberNode" style="rounded=1;whiteSpace=wrap;html=1;" vertex="1" parent="1">
          <mxGeometry x="1320" y="1140" width="160" height="60" as="geometry" />
        </mxCell>
        <mxCell id="IM6zeczxpk0CNqdoy-Uw-16" value="initializeUpdateQueue" style="rounded=1;whiteSpace=wrap;html=1;" vertex="1" parent="1">
          <mxGeometry x="1320" y="1280" width="160" height="60" as="geometry" />
        </mxCell>
        <mxCell id="IM6zeczxpk0CNqdoy-Uw-21" value="" style="edgeStyle=orthogonalEdgeStyle;rounded=0;orthogonalLoop=1;jettySize=auto;html=1;startArrow=classic;startFill=1;" edge="1" parent="1" source="IM6zeczxpk0CNqdoy-Uw-18" target="IM6zeczxpk0CNqdoy-Uw-20">
          <mxGeometry relative="1" as="geometry" />
        </mxCell>
        <mxCell id="IM6zeczxpk0CNqdoy-Uw-18" value="markContainerAsRoot" style="rounded=1;whiteSpace=wrap;html=1;" vertex="1" parent="1">
          <mxGeometry x="1030" y="720" width="160" height="60" as="geometry" />
        </mxCell>
        <mxCell id="IM6zeczxpk0CNqdoy-Uw-23" value="" style="edgeStyle=orthogonalEdgeStyle;rounded=0;orthogonalLoop=1;jettySize=auto;html=1;startArrow=classic;startFill=1;" edge="1" parent="1" source="IM6zeczxpk0CNqdoy-Uw-20" target="IM6zeczxpk0CNqdoy-Uw-22">
          <mxGeometry relative="1" as="geometry" />
        </mxCell>
        <mxCell id="IM6zeczxpk0CNqdoy-Uw-35" value="" style="edgeStyle=orthogonalEdgeStyle;rounded=0;orthogonalLoop=1;jettySize=auto;html=1;startArrow=none;startFill=0;" edge="1" parent="1" source="IM6zeczxpk0CNqdoy-Uw-20" target="IM6zeczxpk0CNqdoy-Uw-34">
          <mxGeometry relative="1" as="geometry" />
        </mxCell>
        <mxCell id="IM6zeczxpk0CNqdoy-Uw-20" value="listenToAllSupportedEvents" style="rounded=1;whiteSpace=wrap;html=1;" vertex="1" parent="1">
          <mxGeometry x="1030" y="860" width="160" height="60" as="geometry" />
        </mxCell>
        <mxCell id="IM6zeczxpk0CNqdoy-Uw-25" value="" style="edgeStyle=orthogonalEdgeStyle;rounded=0;orthogonalLoop=1;jettySize=auto;html=1;startArrow=none;startFill=0;" edge="1" parent="1" source="IM6zeczxpk0CNqdoy-Uw-22" target="IM6zeczxpk0CNqdoy-Uw-24">
          <mxGeometry relative="1" as="geometry" />
        </mxCell>
        <mxCell id="IM6zeczxpk0CNqdoy-Uw-22" value="listenToNativeEvent" style="rounded=1;whiteSpace=wrap;html=1;" vertex="1" parent="1">
          <mxGeometry x="740" y="860" width="160" height="60" as="geometry" />
        </mxCell>
        <mxCell id="IM6zeczxpk0CNqdoy-Uw-31" value="" style="edgeStyle=orthogonalEdgeStyle;rounded=0;orthogonalLoop=1;jettySize=auto;html=1;startArrow=none;startFill=0;" edge="1" parent="1" source="IM6zeczxpk0CNqdoy-Uw-24" target="IM6zeczxpk0CNqdoy-Uw-30">
          <mxGeometry relative="1" as="geometry" />
        </mxCell>
        <mxCell id="IM6zeczxpk0CNqdoy-Uw-24" value="addTrappedEventListener" style="rounded=1;whiteSpace=wrap;html=1;" vertex="1" parent="1">
          <mxGeometry x="740" y="1000" width="160" height="60" as="geometry" />
        </mxCell>
        <mxCell id="IM6zeczxpk0CNqdoy-Uw-26" value="addEventCaptureListenerWithPassiveFlag&lt;br&gt;addEventBubbleListenerWithPassiveFlag" style="rounded=1;whiteSpace=wrap;html=1;" vertex="1" parent="1">
          <mxGeometry x="550" y="1260" width="250" height="60" as="geometry" />
        </mxCell>
        <mxCell id="IM6zeczxpk0CNqdoy-Uw-28" value="addEventCaptureListener&lt;br&gt;addEventBubbleListener" style="rounded=1;whiteSpace=wrap;html=1;" vertex="1" parent="1">
          <mxGeometry x="830" y="1260" width="160" height="60" as="geometry" />
        </mxCell>
        <mxCell id="IM6zeczxpk0CNqdoy-Uw-32" style="edgeStyle=orthogonalEdgeStyle;rounded=0;orthogonalLoop=1;jettySize=auto;html=1;entryX=0.5;entryY=0;entryDx=0;entryDy=0;startArrow=none;startFill=0;" edge="1" parent="1" source="IM6zeczxpk0CNqdoy-Uw-30" target="IM6zeczxpk0CNqdoy-Uw-26">
          <mxGeometry relative="1" as="geometry" />
        </mxCell>
        <mxCell id="IM6zeczxpk0CNqdoy-Uw-36" style="edgeStyle=orthogonalEdgeStyle;rounded=0;orthogonalLoop=1;jettySize=auto;html=1;startArrow=none;startFill=0;" edge="1" parent="1" source="IM6zeczxpk0CNqdoy-Uw-30" target="IM6zeczxpk0CNqdoy-Uw-28">
          <mxGeometry relative="1" as="geometry" />
        </mxCell>
        <mxCell id="IM6zeczxpk0CNqdoy-Uw-30" value="createEventListenerWrapperWithPriority" style="rounded=1;whiteSpace=wrap;html=1;" vertex="1" parent="1">
          <mxGeometry x="695" y="1130" width="250" height="60" as="geometry" />
        </mxCell>
        <mxCell id="IM6zeczxpk0CNqdoy-Uw-34" value="new ReactDOMRoot" style="rounded=1;whiteSpace=wrap;html=1;" vertex="1" parent="1">
          <mxGeometry x="1030" y="1000" width="160" height="60" as="geometry" />
        </mxCell>
        <mxCell id="IM6zeczxpk0CNqdoy-Uw-45" style="edgeStyle=orthogonalEdgeStyle;rounded=0;orthogonalLoop=1;jettySize=auto;html=1;startArrow=none;startFill=0;" edge="1" parent="1" source="IM6zeczxpk0CNqdoy-Uw-37" target="IM6zeczxpk0CNqdoy-Uw-39">
          <mxGeometry relative="1" as="geometry" />
        </mxCell>
        <mxCell id="IM6zeczxpk0CNqdoy-Uw-37" value="root.render" style="rounded=1;whiteSpace=wrap;html=1;" vertex="1" parent="1">
          <mxGeometry x="1510" y="580" width="160" height="60" as="geometry" />
        </mxCell>
        <mxCell id="IM6zeczxpk0CNqdoy-Uw-46" style="edgeStyle=orthogonalEdgeStyle;rounded=0;orthogonalLoop=1;jettySize=auto;html=1;startArrow=none;startFill=0;" edge="1" parent="1" source="IM6zeczxpk0CNqdoy-Uw-39" target="IM6zeczxpk0CNqdoy-Uw-41">
          <mxGeometry relative="1" as="geometry" />
        </mxCell>
        <mxCell id="IM6zeczxpk0CNqdoy-Uw-39" value="root.render" style="rounded=1;whiteSpace=wrap;html=1;" vertex="1" parent="1">
          <mxGeometry x="1510" y="720" width="160" height="60" as="geometry" />
        </mxCell>
        <mxCell id="IM6zeczxpk0CNqdoy-Uw-47" style="edgeStyle=orthogonalEdgeStyle;rounded=0;orthogonalLoop=1;jettySize=auto;html=1;startArrow=classic;startFill=1;" edge="1" parent="1" source="IM6zeczxpk0CNqdoy-Uw-41" target="IM6zeczxpk0CNqdoy-Uw-43">
          <mxGeometry relative="1" as="geometry" />
        </mxCell>
        <mxCell id="IM6zeczxpk0CNqdoy-Uw-51" value="" style="edgeStyle=orthogonalEdgeStyle;rounded=0;orthogonalLoop=1;jettySize=auto;html=1;startArrow=none;startFill=0;" edge="1" parent="1" source="IM6zeczxpk0CNqdoy-Uw-41" target="IM6zeczxpk0CNqdoy-Uw-50">
          <mxGeometry relative="1" as="geometry" />
        </mxCell>
        <mxCell id="IM6zeczxpk0CNqdoy-Uw-41" value="jsx" style="rounded=1;whiteSpace=wrap;html=1;" vertex="1" parent="1">
          <mxGeometry x="1510" y="860" width="160" height="60" as="geometry" />
        </mxCell>
        <mxCell id="IM6zeczxpk0CNqdoy-Uw-43" value="ReactElement" style="rounded=1;whiteSpace=wrap;html=1;" vertex="1" parent="1">
          <mxGeometry x="1790" y="860" width="160" height="60" as="geometry" />
        </mxCell>
        <mxCell id="IM6zeczxpk0CNqdoy-Uw-54" value="" style="edgeStyle=orthogonalEdgeStyle;rounded=0;orthogonalLoop=1;jettySize=auto;html=1;startArrow=none;startFill=0;" edge="1" parent="1" source="IM6zeczxpk0CNqdoy-Uw-48" target="IM6zeczxpk0CNqdoy-Uw-53">
          <mxGeometry relative="1" as="geometry" />
        </mxCell>
        <mxCell id="IM6zeczxpk0CNqdoy-Uw-56" value="" style="edgeStyle=orthogonalEdgeStyle;rounded=0;orthogonalLoop=1;jettySize=auto;html=1;startArrow=none;startFill=0;" edge="1" parent="1" source="IM6zeczxpk0CNqdoy-Uw-48" target="IM6zeczxpk0CNqdoy-Uw-55">
          <mxGeometry relative="1" as="geometry" />
        </mxCell>
        <mxCell id="IM6zeczxpk0CNqdoy-Uw-48" value="updateContainer" style="rounded=1;whiteSpace=wrap;html=1;" vertex="1" parent="1">
          <mxGeometry x="1510" y="1140" width="160" height="60" as="geometry" />
        </mxCell>
        <mxCell id="IM6zeczxpk0CNqdoy-Uw-52" style="edgeStyle=orthogonalEdgeStyle;rounded=0;orthogonalLoop=1;jettySize=auto;html=1;entryX=0.5;entryY=0;entryDx=0;entryDy=0;startArrow=none;startFill=0;" edge="1" parent="1" source="IM6zeczxpk0CNqdoy-Uw-50" target="IM6zeczxpk0CNqdoy-Uw-48">
          <mxGeometry relative="1" as="geometry" />
        </mxCell>
        <mxCell id="IM6zeczxpk0CNqdoy-Uw-50" value="render" style="rounded=1;whiteSpace=wrap;html=1;" vertex="1" parent="1">
          <mxGeometry x="1510" y="1000" width="160" height="60" as="geometry" />
        </mxCell>
        <mxCell id="IM6zeczxpk0CNqdoy-Uw-53" value="onScheduleRoot" style="rounded=1;whiteSpace=wrap;html=1;" vertex="1" parent="1">
          <mxGeometry x="1750" y="1140" width="160" height="60" as="geometry" />
        </mxCell>
        <mxCell id="IM6zeczxpk0CNqdoy-Uw-58" value="" style="edgeStyle=orthogonalEdgeStyle;rounded=0;orthogonalLoop=1;jettySize=auto;html=1;startArrow=none;startFill=0;" edge="1" parent="1" source="IM6zeczxpk0CNqdoy-Uw-55" target="IM6zeczxpk0CNqdoy-Uw-57">
          <mxGeometry relative="1" as="geometry" />
        </mxCell>
        <mxCell id="IM6zeczxpk0CNqdoy-Uw-55" value="requestUpdateLane" style="rounded=1;whiteSpace=wrap;html=1;" vertex="1" parent="1">
          <mxGeometry x="1750" y="1280" width="160" height="60" as="geometry" />
        </mxCell>
        <mxCell id="IM6zeczxpk0CNqdoy-Uw-60" value="" style="edgeStyle=orthogonalEdgeStyle;rounded=0;orthogonalLoop=1;jettySize=auto;html=1;startArrow=none;startFill=0;" edge="1" parent="1" source="IM6zeczxpk0CNqdoy-Uw-57" target="IM6zeczxpk0CNqdoy-Uw-59">
          <mxGeometry relative="1" as="geometry" />
        </mxCell>
        <mxCell id="IM6zeczxpk0CNqdoy-Uw-57" value="requestUpdateLane" style="rounded=1;whiteSpace=wrap;html=1;" vertex="1" parent="1">
          <mxGeometry x="1750" y="1420" width="160" height="60" as="geometry" />
        </mxCell>
        <mxCell id="IM6zeczxpk0CNqdoy-Uw-62" value="" style="edgeStyle=orthogonalEdgeStyle;rounded=0;orthogonalLoop=1;jettySize=auto;html=1;startArrow=none;startFill=0;" edge="1" parent="1" source="IM6zeczxpk0CNqdoy-Uw-59" target="IM6zeczxpk0CNqdoy-Uw-61">
          <mxGeometry relative="1" as="geometry" />
        </mxCell>
        <mxCell id="IM6zeczxpk0CNqdoy-Uw-59" value="getContextForSubtree" style="rounded=1;whiteSpace=wrap;html=1;" vertex="1" parent="1">
          <mxGeometry x="1750" y="1560" width="160" height="60" as="geometry" />
        </mxCell>
        <mxCell id="IM6zeczxpk0CNqdoy-Uw-64" value="" style="edgeStyle=orthogonalEdgeStyle;rounded=0;orthogonalLoop=1;jettySize=auto;html=1;startArrow=none;startFill=0;" edge="1" parent="1" source="IM6zeczxpk0CNqdoy-Uw-61" target="IM6zeczxpk0CNqdoy-Uw-63">
          <mxGeometry relative="1" as="geometry" />
        </mxCell>
        <mxCell id="IM6zeczxpk0CNqdoy-Uw-61" value="createUpdate" style="rounded=1;whiteSpace=wrap;html=1;" vertex="1" parent="1">
          <mxGeometry x="1750" y="1700" width="160" height="60" as="geometry" />
        </mxCell>
        <mxCell id="IM6zeczxpk0CNqdoy-Uw-66" value="" style="edgeStyle=orthogonalEdgeStyle;rounded=0;orthogonalLoop=1;jettySize=auto;html=1;startArrow=none;startFill=0;" edge="1" parent="1" source="IM6zeczxpk0CNqdoy-Uw-63" target="IM6zeczxpk0CNqdoy-Uw-65">
          <mxGeometry relative="1" as="geometry" />
        </mxCell>
        <mxCell id="IM6zeczxpk0CNqdoy-Uw-72" value="" style="edgeStyle=orthogonalEdgeStyle;rounded=0;orthogonalLoop=1;jettySize=auto;html=1;startArrow=none;startFill=0;" edge="1" parent="1" source="IM6zeczxpk0CNqdoy-Uw-63" target="IM6zeczxpk0CNqdoy-Uw-71">
          <mxGeometry relative="1" as="geometry" />
        </mxCell>
        <mxCell id="IM6zeczxpk0CNqdoy-Uw-63" value="enqueueUpdate" style="rounded=1;whiteSpace=wrap;html=1;" vertex="1" parent="1">
          <mxGeometry x="1750" y="1840" width="160" height="60" as="geometry" />
        </mxCell>
        <mxCell id="IM6zeczxpk0CNqdoy-Uw-68" value="" style="edgeStyle=orthogonalEdgeStyle;rounded=0;orthogonalLoop=1;jettySize=auto;html=1;startArrow=none;startFill=0;" edge="1" parent="1" source="IM6zeczxpk0CNqdoy-Uw-65" target="IM6zeczxpk0CNqdoy-Uw-67">
          <mxGeometry relative="1" as="geometry" />
        </mxCell>
        <mxCell id="IM6zeczxpk0CNqdoy-Uw-65" value="enqueueConcurrentClassUpdate" style="rounded=1;whiteSpace=wrap;html=1;" vertex="1" parent="1">
          <mxGeometry x="2050" y="1840" width="220" height="60" as="geometry" />
        </mxCell>
        <mxCell id="IM6zeczxpk0CNqdoy-Uw-67" value="markUpdateLaneFromFiberToRoot" style="rounded=1;whiteSpace=wrap;html=1;" vertex="1" parent="1">
          <mxGeometry x="2050" y="1970" width="220" height="60" as="geometry" />
        </mxCell>
        <mxCell id="IM6zeczxpk0CNqdoy-Uw-74" value="y" style="edgeStyle=orthogonalEdgeStyle;rounded=0;orthogonalLoop=1;jettySize=auto;html=1;startArrow=none;startFill=0;" edge="1" parent="1" source="IM6zeczxpk0CNqdoy-Uw-71" target="IM6zeczxpk0CNqdoy-Uw-73">
          <mxGeometry relative="1" as="geometry" />
        </mxCell>
        <mxCell id="IM6zeczxpk0CNqdoy-Uw-71" value="root !== null" style="rhombus;whiteSpace=wrap;html=1;rounded=1;" vertex="1" parent="1">
          <mxGeometry x="1770" y="1970" width="120" height="80" as="geometry" />
        </mxCell>
        <mxCell id="IM6zeczxpk0CNqdoy-Uw-76" value="" style="edgeStyle=orthogonalEdgeStyle;rounded=0;orthogonalLoop=1;jettySize=auto;html=1;startArrow=none;startFill=0;" edge="1" parent="1" source="IM6zeczxpk0CNqdoy-Uw-73" target="IM6zeczxpk0CNqdoy-Uw-75">
          <mxGeometry relative="1" as="geometry" />
        </mxCell>
        <mxCell id="IM6zeczxpk0CNqdoy-Uw-86" value="" style="edgeStyle=orthogonalEdgeStyle;rounded=0;orthogonalLoop=1;jettySize=auto;html=1;startArrow=none;startFill=0;" edge="1" parent="1" source="IM6zeczxpk0CNqdoy-Uw-73" target="IM6zeczxpk0CNqdoy-Uw-85">
          <mxGeometry relative="1" as="geometry" />
        </mxCell>
        <mxCell id="IM6zeczxpk0CNqdoy-Uw-73" value="scheduleUpdateOnFiber" style="whiteSpace=wrap;html=1;rounded=1;" vertex="1" parent="1">
          <mxGeometry x="1750" y="2130" width="160" height="60" as="geometry" />
        </mxCell>
        <mxCell id="IM6zeczxpk0CNqdoy-Uw-80" value="" style="edgeStyle=orthogonalEdgeStyle;rounded=0;orthogonalLoop=1;jettySize=auto;html=1;startArrow=none;startFill=0;" edge="1" parent="1" source="IM6zeczxpk0CNqdoy-Uw-75" target="IM6zeczxpk0CNqdoy-Uw-79">
          <mxGeometry relative="1" as="geometry" />
        </mxCell>
        <mxCell id="IM6zeczxpk0CNqdoy-Uw-75" value="markRootUpdated" style="whiteSpace=wrap;html=1;rounded=1;" vertex="1" parent="1">
          <mxGeometry x="1990" y="2130" width="160" height="60" as="geometry" />
        </mxCell>
        <mxCell id="IM6zeczxpk0CNqdoy-Uw-82" value="" style="edgeStyle=orthogonalEdgeStyle;rounded=0;orthogonalLoop=1;jettySize=auto;html=1;startArrow=none;startFill=0;" edge="1" parent="1" source="IM6zeczxpk0CNqdoy-Uw-79" target="IM6zeczxpk0CNqdoy-Uw-81">
          <mxGeometry relative="1" as="geometry" />
        </mxCell>
        <mxCell id="IM6zeczxpk0CNqdoy-Uw-79" value="ensureRootIsScheduled" style="whiteSpace=wrap;html=1;rounded=1;" vertex="1" parent="1">
          <mxGeometry x="1990" y="2270" width="160" height="60" as="geometry" />
        </mxCell>
        <mxCell id="IM6zeczxpk0CNqdoy-Uw-84" value="" style="edgeStyle=orthogonalEdgeStyle;rounded=0;orthogonalLoop=1;jettySize=auto;html=1;startArrow=none;startFill=0;" edge="1" parent="1" source="IM6zeczxpk0CNqdoy-Uw-81" target="IM6zeczxpk0CNqdoy-Uw-83">
          <mxGeometry relative="1" as="geometry" />
        </mxCell>
        <mxCell id="IM6zeczxpk0CNqdoy-Uw-81" value="scheduleCallback$1" style="whiteSpace=wrap;html=1;rounded=1;" vertex="1" parent="1">
          <mxGeometry x="2240" y="2270" width="160" height="60" as="geometry" />
        </mxCell>
        <mxCell id="IM6zeczxpk0CNqdoy-Uw-83" value="unstable_scheduleCallback" style="whiteSpace=wrap;html=1;rounded=1;" vertex="1" parent="1">
          <mxGeometry x="2480" y="2270" width="160" height="60" as="geometry" />
        </mxCell>
        <mxCell id="IM6zeczxpk0CNqdoy-Uw-85" value="entangleTransitions" style="whiteSpace=wrap;html=1;rounded=1;" vertex="1" parent="1">
          <mxGeometry x="1750" y="2270" width="160" height="60" as="geometry" />
        </mxCell>
      </root>
    </mxGraphModel>
  </diagram>
</mxfile>
